<svg width="2779" height="717" viewBox="0 0 2779 717" fill="none" xmlns="http://www.w3.org/2000/svg">
<g clip-path="url(#clip0_2608_338)">
<path fill-rule="evenodd" clip-rule="evenodd" d="M584.279 123.434C583.902 13.419 450.606 -41.2422 373.015 36.7922L248.836 161.697C241.542 169.048 241.605 180.86 248.899 188.148C272.792 211.897 311.46 211.772 335.164 187.897L429.542 93.0248C457.081 65.3167 504.364 84.7308 504.489 123.747L505.433 407.862C505.558 446.879 458.401 466.608 430.674 439.089L210.921 220.694C132.83 143.163 -0.153774 198.64 0.223457 308.655L1.16766 592.769C1.54489 702.784 134.841 757.445 212.43 679.411L339.062 552.056C344.911 546.15 344.847 536.663 339 530.82C313.661 505.625 272.665 505.75 247.452 531.133L155.842 623.304C128.302 651.013 81.02 631.598 80.8939 592.581L79.9508 308.467C79.8247 269.449 126.982 249.72 154.711 277.24L374.526 495.573C452.617 573.104 585.537 517.563 585.222 407.548L584.279 123.434Z" fill="white"/>
<path d="M804.285 182.25C804.285 156.224 825.436 135.102 851.487 135.102C867.216 135.102 881.951 142.959 890.698 156.035L1120.41 498.832V167.539C1120.41 149.623 1134.94 135.164 1152.82 135.164C1170.76 135.164 1185.22 149.686 1185.22 167.539V563.394C1185.22 589.168 1164.27 610.102 1138.47 610.102C1122.85 610.102 1108.32 602.306 1099.64 589.357L869.797 246.434V577.35C869.797 595.455 855.14 610.102 837.01 610.102C818.886 610.102 804.223 595.455 804.223 577.35V182.25H804.285Z" fill="white"/>
<path d="M2288.69 261.164C2314.45 261.164 2338.7 266.187 2361.45 276.171C2374.9 282.072 2387.22 289.419 2398.46 298.146C2411.72 308.443 2411.03 327.782 2399.1 339.585C2385.58 352.959 2363.46 350.573 2347.5 340.15C2331.04 329.351 2311.37 324.015 2288.56 324.015C2256.39 324.015 2230.12 334.939 2209.89 356.79C2189.65 378.64 2179.54 405.952 2179.54 438.664C2179.54 471.377 2189.65 498.752 2209.89 520.539C2230.19 542.389 2256.39 553.314 2288.56 553.314C2311.43 553.314 2331.04 547.915 2347.57 537.178C2363.46 526.755 2385.58 524.369 2399.1 537.743C2411.03 549.547 2411.65 568.885 2398.46 579.119C2387.22 587.847 2374.84 595.194 2361.45 601.095C2338.64 611.141 2314.38 616.102 2288.62 616.102C2239.37 616.102 2197.19 598.71 2162.01 563.863C2126.83 529.015 2109.23 487.324 2109.23 438.602C2109.23 389.878 2126.83 348.187 2162.01 313.34C2197.19 278.493 2239.42 261.102 2288.62 261.102L2288.69 261.164Z" fill="white"/>
<path d="M1653.23 613.102C1633.88 613.102 1618.22 597.657 1618.22 578.571V135.632C1618.22 116.546 1633.88 101.102 1653.23 101.102C1672.57 101.102 1688.22 116.546 1688.22 135.632V578.571C1688.22 597.657 1672.57 613.102 1653.23 613.102Z" fill="white"/>
<path d="M2477.99 312.878C2512.55 278.318 2553.89 261.102 2602.19 261.102C2650.5 261.102 2691.9 278.381 2726.45 312.878C2761.01 347.436 2778.23 388.844 2778.23 437.101C2778.23 485.358 2760.94 526.829 2726.45 561.326C2691.9 595.884 2650.5 613.102 2602.19 613.102C2553.89 613.102 2512.55 595.822 2477.99 561.326C2443.43 526.829 2426.23 485.358 2426.23 437.101C2426.23 388.844 2443.43 347.374 2477.99 312.878ZM2678.71 355.919C2659.3 334.241 2633.8 323.433 2602.19 323.433C2570.59 323.433 2544.83 334.304 2525.05 355.919C2505.19 377.597 2495.26 404.678 2495.26 437.165C2495.26 469.65 2505.19 496.731 2525.05 518.409C2544.9 540.087 2570.66 550.895 2602.19 550.895C2633.73 550.895 2659.3 540.024 2678.71 518.409C2698.13 496.731 2707.8 469.65 2707.8 437.165C2707.8 404.678 2698.13 377.597 2678.71 355.919Z" fill="white"/>
<path d="M1774.46 312.878C1809.31 278.318 1850.99 261.102 1899.72 261.102C1948.44 261.102 1990.14 278.381 2024.97 312.878C2059.83 347.436 2077.22 388.844 2077.22 437.101C2077.22 485.358 2059.83 526.829 2024.97 561.326C1990.14 595.822 1948.44 613.102 1899.72 613.102C1850.99 613.102 1809.31 595.822 1774.46 561.326C1739.61 526.766 1722.22 485.358 1722.22 437.101C1722.22 388.844 1739.61 347.374 1774.46 312.878ZM1976.88 355.919C1957.29 334.241 1931.61 323.433 1899.72 323.433C1867.82 323.433 1841.9 334.304 1821.93 355.919C1801.9 377.597 1791.91 404.678 1791.91 437.165C1791.91 469.65 1801.95 496.731 1821.93 518.409C1841.95 540.087 1867.89 550.895 1899.72 550.895C1931.55 550.895 1957.29 540.024 1976.88 518.409C1996.48 496.731 2006.21 469.65 2006.21 437.165C2006.21 404.678 1996.41 377.597 1976.88 355.919Z" fill="white"/>
<path d="M1281.01 315.878C1315.56 281.318 1356.97 264.102 1405.22 264.102C1453.48 264.102 1494.95 281.381 1529.45 315.878C1564.01 350.436 1581.22 391.844 1581.22 440.101C1581.22 488.358 1563.95 529.829 1529.45 564.326C1494.95 598.822 1453.55 616.102 1405.22 616.102C1356.91 616.102 1315.49 598.822 1281.01 564.326C1246.44 529.766 1229.22 488.358 1229.22 440.101C1229.22 391.844 1246.51 350.374 1281.01 315.878ZM1481.76 358.919C1462.34 337.241 1436.83 326.433 1405.22 326.433C1373.63 326.433 1347.86 337.304 1328.06 358.919C1308.21 380.597 1298.28 407.678 1298.28 440.165C1298.28 472.65 1308.21 499.731 1328.06 521.41C1347.92 543.087 1373.68 553.895 1405.22 553.895C1436.76 553.895 1462.34 543.025 1481.76 521.41C1501.17 499.731 1510.86 472.65 1510.86 440.165C1510.86 407.678 1501.17 380.597 1481.76 358.919Z" fill="white"/>
</g>
<defs>
<clipPath id="clip0_2608_338">
<rect width="2779" height="717" fill="white"/>
</clipPath>
</defs>
</svg>
